<?xml version="1.0" encoding="UTF-8" standalone="no"?>
<svg
   version="1.1"
   x="0"
   y="0"
   width="785.648"
   height="576.878"
   viewBox="0, 0, 785.648, 576.878"
   id="svg77"
   sodipodi:docname="infographic-placeholder.svg"
   inkscape:version="1.2.2 (b0a8486541, 2022-12-01)"
   xmlns:inkscape="http://www.inkscape.org/namespaces/inkscape"
   xmlns:sodipodi="http://sodipodi.sourceforge.net/DTD/sodipodi-0.dtd"
   xmlns="http://www.w3.org/2000/svg"
   xmlns:svg="http://www.w3.org/2000/svg">
  <sodipodi:namedview
     id="namedview79"
     pagecolor="#ffffff"
     bordercolor="#666666"
     borderopacity="1.0"
     inkscape:showpageshadow="2"
     inkscape:pageopacity="0.0"
     inkscape:pagecheckerboard="0"
     inkscape:deskcolor="#d1d1d1"
     showgrid="false"
     inkscape:zoom="0.96588907"
     inkscape:cx="384.61974"
     inkscape:cy="304.38278"
     inkscape:window-width="1848"
     inkscape:window-height="989"
     inkscape:window-x="0"
     inkscape:window-y="0"
     inkscape:window-maximized="1"
     inkscape:current-layer="svg77" />
  <defs
     id="defs8">
    <clipPath
       id="Clip_1">
      <path
         d="M630.035,262.608 L640.875,262.608 L640.875,269.336 L630.035,269.336 z"
         id="path2" />
    </clipPath>
    <clipPath
       id="Clip_2">
      <path
         d="M584.81,262.982 L592.47,262.982 L592.47,268.839 L584.81,268.839 z"
         id="path5" />
    </clipPath>
  </defs>
  <path
     d="M 749.5,474.5 H 11 V 0 h 738.5 z"
     fill="#705a20"
     id="path75261"
     style="fill:#707070;fill-opacity:1" />
  <path
     d="M 733.5,460 H 27.5 V 14 h 706 z"
     fill="#014a2f"
     id="path75263"
     style="fill:#eeeeee;fill-opacity:1" />
  <path
     d="M 754,477 H 0 v -26.5 h 754 z"
     fill="#544418"
     id="path75287"
     style="fill:#3e3e3e;fill-opacity:1" />
  <path
     d="m 679.565,253.887 c 3.115,18.191 6.604,44.356 -1.121,58.935 -7.725,14.578 -15.326,23.05 -16.945,23.922 -1.62,0.873 -4.611,-25.044 -4.237,-30.152 0.374,-5.109 1.246,-37.629 9.096,-43.61 7.85,-5.98 13.207,-9.095 13.207,-9.095"
     fill="#46220c"
     id="path75291" />
  <path
     d="m 642.092,557.438 c -1.869,1.682 -16.26,8.504 -17.475,7.383 -0.875,-0.808 0.53,-2.926 1.733,-4.606 -5.395,4.951 -13.525,10.613 -15.563,11.801 -2.243,1.308 -1.589,4.953 2.523,4.86 4.112,-0.094 9.719,-0.748 12.148,-2.056 2.43,-1.309 9.439,-6.261 10.467,-6.355 0,2.617 7.382,-0.28 7.382,-0.28 0,0 1.776,-7.102 -1.215,-10.747"
     fill="#220b00"
     id="path75293" />
  <path
     d="m 624.617,564.821 c 1.215,1.121 15.606,-5.701 17.475,-7.383 0,-9.812 -1.215,-56.256 1.682,-60.741 -14.391,0 -19.063,1.215 -19.063,1.215 2.99,14.297 8.41,55.601 3.177,60.835 -0.479,0.478 -0.995,0.97 -1.538,1.468 -1.203,1.68 -2.608,3.798 -1.733,4.606"
     fill="#f7c5ac"
     id="path75295" />
  <path
     d="m 663.025,557.438 c -1.869,1.682 -16.26,8.504 -17.475,7.383 -0.875,-0.808 0.529,-2.926 1.732,-4.606 -5.395,4.951 -13.525,10.613 -15.562,11.801 -2.243,1.308 -1.589,4.953 2.523,4.86 4.111,-0.094 9.718,-0.748 12.148,-2.056 2.43,-1.309 9.438,-6.261 10.466,-6.355 0,2.617 7.383,-0.28 7.383,-0.28 0,0 1.775,-7.102 -1.215,-10.747"
     fill="#220b00"
     id="path75297" />
  <path
     d="m 645.55,564.821 c 1.215,1.121 15.606,-5.701 17.475,-7.383 0,-9.812 -1.215,-56.256 1.682,-60.741 -14.391,0 -19.064,1.215 -19.064,1.215 2.991,14.297 8.411,55.601 3.177,60.835 -0.478,0.478 -0.994,0.97 -1.538,1.468 -1.203,1.68 -2.608,3.798 -1.732,4.606"
     fill="#f7c5ac"
     id="path75299" />
  <path
     d="m 614.151,423.963 c -5.731,22.677 -0.747,40.868 9.719,74.509 11.463,-0.249 34.95,-1.401 42.425,0 9.252,-22.427 17.662,-56.162 18.036,-61.395 0.374,-5.233 -4.205,-13.737 -4.205,-13.737 z"
     fill="#ffddf2"
     id="path75301"
     style="fill:#000000;fill-opacity:1" />
  <path
     d="m 632.654,310.641 c -11.027,1.308 -23.456,2.523 -27.007,3.457 -3.551,0.935 -21.119,15.139 -34.295,41.585 -6.448,-7.476 -36.913,-32.614 -39.81,-34.856 -6.354,8.317 -11.867,24.016 -12.148,28.221 10.525,8.946 35.208,19.703 51.335,31.652 1.659,1.229 4.011,0.792 5.115,-0.952 11.327,-17.89 28.876,-40.792 31.953,-39.297 15.325,29.249 20.185,41.958 -2.056,99.149 11.213,-3.178 29.342,-1.433 33.642,-0.81 2.18,-5.42 3.924,-7.85 7.413,-9.968 3.364,3.302 5.17,8.037 4.984,9.719 5.918,-1.122 17.194,-4.86 33.392,-0.873 -4.86,-26.664 -13.083,-44.356 -11.463,-58.311 1.62,-13.955 11.338,-34.514 13.83,-36.383 8.971,18.69 12.834,45.229 18.565,45.229 5.732,0 32.894,-35.012 34.265,-38.127 -6.728,-4.984 -13.332,-7.102 -17.942,-8.223 -3.988,7.102 -10.467,18.44 -12.336,20.683 -3.488,-17.818 -8.223,-31.274 -10.341,-36.757 -2.118,-5.482 -20.808,-18.565 -39.872,-16.073 -18.565,0.499 -27.224,0.935 -27.224,0.935"
     fill="#ffd4ef"
     id="path75303"
     style="fill:#2e2e2e;fill-opacity:1" />
  <path
     d="m 664.987,277.186 c -4.984,13.083 -5.607,31.15 -4.984,33.393 0.623,2.242 -5.482,18.44 -11.836,18.44 -6.355,0 -10.467,-15.326 -10.467,-15.326 2.368,-3.987 2.492,-12.086 1.745,-13.83 -0.748,-1.744 25.542,-22.677 25.542,-22.677"
     fill="#f9d1bd"
     id="path75305" />
  <path
     d="m 501.265,327.729 c 0,-8.973 5.035,-16.247 13.551,-16.247 8.516,0 15.42,7.274 15.42,16.247 0,8.973 -0.27,16.247 -8.786,16.247 -8.516,0 -20.185,-7.274 -20.185,-16.247"
     fill="#f7c5ac"
     id="path75307" />
  <path
     d="m 672.774,247.158 c -0.702,-0.011 -1.299,-0.005 -1.807,-0.014 -1.981,-25.715 -19.74,-45.838 -43.173,-45.838 -24.876,0 -45.042,22.677 -45.042,50.649 0,34.389 17.195,50.649 45.042,50.649 17.642,0 33.362,-12.932 40.005,-31.309 6.183,-2.99 9.544,-9.916 10.551,-14.48 1.495,-6.775 -3.668,-9.626 -5.576,-9.657"
     fill="#f7c5ac"
     id="path75309" />
  <path
     d="m 627.358,254.432 c 0,3.449 -1.91,6.245 -4.267,6.245 -2.357,0 -4.268,-2.796 -4.268,-6.245 0,-3.45 1.911,-6.246 4.268,-6.246 2.357,0 4.267,2.796 4.267,6.246"
     fill="#000000"
     id="path75311" />
  <path
     d="m 627.842,247.17 c 0,0 -0.017,0.055 -0.045,0.151 -0.014,0.049 -0.032,0.107 -0.052,0.174 -0.019,0.067 -0.065,0.147 -0.104,0.233 -0.043,0.087 -0.089,0.182 -0.139,0.282 -0.052,0.089 -0.107,0.182 -0.165,0.278 -0.111,0.2 -0.25,0.391 -0.385,0.591 -0.137,0.197 -0.288,0.384 -0.427,0.564 -0.156,0.174 -0.28,0.34 -0.428,0.477 -0.072,0.07 -0.138,0.133 -0.196,0.19 -0.046,0.053 -0.151,0.115 -0.212,0.157 -0.135,0.088 -0.217,0.133 -0.217,0.133 -0.333,0.186 -0.754,0.065 -0.939,-0.269 -0.186,-0.333 -0.065,-0.754 0.269,-0.939 0.007,-0.005 0.015,-0.009 0.023,-0.012 l 0.184,-0.093 c 0,0 0.018,-0.009 0.058,-0.016 0.024,-0.011 0.035,0.009 0.095,-0.029 0.052,-0.028 0.111,-0.059 0.175,-0.093 0.129,-0.062 0.286,-0.181 0.455,-0.285 0.162,-0.121 0.343,-0.248 0.513,-0.387 0.167,-0.141 0.344,-0.279 0.488,-0.423 0.075,-0.07 0.148,-0.139 0.217,-0.204 0.058,-0.063 0.113,-0.123 0.164,-0.179 0.051,-0.058 0.105,-0.102 0.142,-0.162 0.038,-0.059 0.071,-0.111 0.098,-0.153 0.054,-0.085 0.085,-0.134 0.085,-0.134 l 0.004,-0.006 c 0.055,-0.088 0.172,-0.114 0.259,-0.058 0.073,0.046 0.103,0.134 0.08,0.212"
     fill="#000000"
     id="path75313" />
  <path
     d="m 618.824,242.05 c 0.981,-3.738 4.002,-6.775 6.79,-6.729 2.788,0.047 5.498,2.617 5.732,8.13"
     fill-opacity="0"
     stroke="#000000"
     stroke-width="0.748"
     stroke-linecap="round"
     stroke-linejoin="round"
     id="path75315"
     style="stroke-width:2.491;stroke-dasharray:none" />
  <path
     d="m 592.86,254.432 c 0,3.449 1.754,6.245 3.917,6.245 2.164,0 3.918,-2.796 3.918,-6.245 0,-3.45 -1.754,-6.246 -3.918,-6.246 -2.163,0 -3.917,2.796 -3.917,6.246"
     fill="#000000"
     id="path75317" />
  <path
     d="m 592.417,247.17 c 0,0 0.015,0.055 0.041,0.151 0.013,0.049 0.029,0.107 0.047,0.174 0.018,0.067 0.06,0.147 0.096,0.233 0.039,0.087 0.082,0.182 0.127,0.282 0.048,0.089 0.099,0.182 0.152,0.278 0.102,0.2 0.23,0.391 0.354,0.591 0.126,0.197 0.263,0.384 0.392,0.564 0.142,0.174 0.256,0.34 0.392,0.477 0.066,0.07 0.127,0.133 0.181,0.19 0.042,0.053 0.138,0.115 0.193,0.157 0.125,0.088 0.2,0.133 0.2,0.133 0.306,0.186 0.692,0.065 0.862,-0.269 0.17,-0.333 0.06,-0.754 -0.247,-0.939 -0.007,-0.005 -0.014,-0.009 -0.021,-0.012 l -0.169,-0.093 c 0,0 -0.017,-0.009 -0.053,-0.016 -0.022,-0.011 -0.033,0.009 -0.087,-0.029 -0.048,-0.028 -0.102,-0.059 -0.161,-0.093 -0.119,-0.062 -0.263,-0.181 -0.418,-0.285 -0.149,-0.121 -0.315,-0.248 -0.471,-0.387 -0.153,-0.141 -0.316,-0.279 -0.448,-0.423 -0.069,-0.07 -0.135,-0.139 -0.199,-0.204 -0.053,-0.063 -0.104,-0.123 -0.15,-0.179 -0.047,-0.058 -0.096,-0.102 -0.131,-0.162 -0.034,-0.059 -0.064,-0.111 -0.089,-0.153 -0.05,-0.085 -0.078,-0.134 -0.078,-0.134 l -0.004,-0.006 c -0.051,-0.088 -0.158,-0.114 -0.238,-0.058 -0.067,0.046 -0.095,0.134 -0.073,0.212"
     fill="#000000"
     id="path75319" />
  <path
     d="m 600.695,242.05 c -0.901,-3.738 -3.674,-6.775 -6.234,-6.729 -2.558,0.047 -5.046,2.617 -5.26,8.13"
     fill-opacity="0"
     stroke="#000000"
     stroke-width="0.716"
     stroke-linecap="round"
     stroke-linejoin="round"
     id="path75321"
     style="stroke-width:2.557;stroke-dasharray:none" />
  <path
     d="m 602.844,262.811 c -0.592,1.713 -3.244,4.846 -3.691,5.155 -0.452,0.312 -0.81,2.165 2.772,3.38"
     fill-opacity="0"
     stroke="#eba685"
     stroke-width="1.869"
     stroke-linecap="round"
     stroke-linejoin="round"
     id="path75323" />
  <path
     d="m 596.583,275.878 c 7.429,3.878 16.805,4.673 29.031,-0.233"
     fill-opacity="0"
     stroke="#eb613c"
     stroke-width="1.495"
     stroke-linecap="round"
     id="path75325"
     style="stroke-width:2.095;stroke-dasharray:none" />
  <path
     d="m 520.072,318.697 -6.027,2.479 -13.474,-31.697 c 0,0 0.123,-1.841 2.76,-2.926 2.637,-1.084 4.02,0.138 4.02,0.138 z"
     fill-opacity="0"
     stroke="#cccccc"
     stroke-width="1.122"
     id="path75329"
     style="stroke:none" />
  <path
     d="m 649.475,402.547 c 0,1.626 -1.297,2.944 -2.897,2.944 -1.6,0 -2.897,-1.318 -2.897,-2.944 0,-1.625 1.297,-2.943 2.897,-2.943 1.6,0 2.897,1.318 2.897,2.943"
     fill="#ffe5f5"
     id="path75337" />
  <path
     d="m 649.475,418.994 c 0,1.626 -1.297,2.944 -2.897,2.944 -1.6,0 -2.897,-1.318 -2.897,-2.944 0,-1.625 1.297,-2.943 2.897,-2.943 1.6,0 2.897,1.318 2.897,2.943"
     fill="#ffe5f5"
     id="path75339" />
  <path
     d="m 633.495,332.975 c 1.962,7.102 14.671,51.397 14.578,56.63 6.728,-21.773 12.989,-56.723 13.176,-58.405 0.187,-1.682 -9.625,-5.794 -14.017,-5.794 -4.392,0 -12.336,4.205 -13.737,7.569"
     fill="#ffffff"
     id="path75341" />
  <path
     d="m 667.51,320.64 c 4.392,4.205 5.794,10.746 6.448,13.269 -6.167,3.178 -10.746,5.888 -10.746,5.888 4.485,2.429 6.448,5.046 7.195,6.354 -4.392,6.261 -14.858,27.941 -16.353,33.735"
     fill-opacity="0"
     stroke="#bf9fb3"
     stroke-width="1.869"
     id="path75343"
     style="stroke:#c1c1c1;stroke-opacity:1" />
  <path
     d="m 627.047,324.658 c -2.617,3.551 -4.299,13.27 -4.392,15.232 5.887,0.281 8.41,0.561 10.559,2.243 -4.329,1.277 -6.011,2.181 -8.223,4.299 6.074,6.074 16.54,28.408 17.475,33.454"
     fill-opacity="0"
     stroke="#bf9fb3"
     stroke-width="1.869"
     id="path75345"
     style="stroke:#c1c1c1;stroke-opacity:1" />
  <path
     d="m 635.831,167.852 c -46.724,-1.122 -55.695,38.874 -58.872,62.423 -1.122,6.168 -5.296,9.501 -6.168,10.249 -0.872,0.747 -0.561,1.401 1.246,3.021 1.807,1.62 10.093,9.096 10.684,10.591 -0.062,-5.965 0.639,-11.619 0.919,-11.853 21.774,-8.643 29.639,-16.805 39.856,-33.376 0.81,11.214 -5.918,25.729 -10.092,27.038 4.174,0 17.007,0.062 18.004,0.062 6.355,-5.233 13.083,-17.195 12.834,-22.552 11.899,10.404 18.129,28.408 8.971,60.741 9.718,-12.148 12.896,-23.923 12.896,-23.923 4.765,-5.98 13.923,-2.99 12.241,6.542 19.157,-20.559 19.157,-88.403 -42.519,-88.963"
     fill="#46220c"
     id="path75347" />
  <g
     id="g75353">
    <path
       d="m 521.905,326.743 c -0.94,1.072 -2.303,1.747 -3.819,1.747 -2.838,0 -5.139,-2.364 -5.139,-5.28 0,-2.916 2.301,-5.28 5.139,-5.28 0.95,0 1.839,0.264 2.602,0.725"
       fill="#f7c5ac"
       id="path75349" />
    <path
       d="m 521.905,326.743 c -0.94,1.072 -2.303,1.747 -3.819,1.747 -2.838,0 -5.139,-2.364 -5.139,-5.28 0,-2.916 2.301,-5.28 5.139,-5.28 0.95,0 1.839,0.264 2.602,0.725"
       fill-opacity="0"
       stroke="#eba685"
       stroke-width="1.495"
       id="path75351" />
  </g>
  <path
     d="m 668.609,252.411 c 1.139,-0.783 4.272,-3.346 5.411,0.213 1.139,3.56 -2.919,11.533 -5.482,12.601"
     fill-opacity="0"
     stroke="#eba685"
     stroke-width="1.122"
     id="path75373" />
  <path
     d="m 748.672,340.055 c 4.547,-8.414 3.032,-18.046 -3.383,-21.513 -6.416,-3.468 -15.304,0.542 -19.851,8.956 -4.547,8.414 -3.033,18.046 3.382,21.514 6.417,3.467 15.304,-0.543 19.852,-8.957"
     fill="#f7c5ac"
     id="path75375" />
  <path
     d="m 639.195,309.27 c 0,0 -13.643,-4.08 -9.718,27.91 8.721,-5.171 12.582,-11.629 16.696,-11.65 6.198,-0.031 13.861,2.819 19.375,10.591 0.374,0.81 1.495,0.187 1.557,-0.934 0.062,-1.122 4.548,-20.061 -6.603,-25.231 -5.981,8.223 -10.482,14.437 -11.728,14.936 -1.246,0.498 -2.617,0.467 -3.575,0 -0.908,-0.443 -6.004,-15.622 -6.004,-15.622"
     fill="#ffffff"
     id="path75377" />
  <path
     d="m 649.475,343.666 c 0,1.311 -1.046,2.374 -2.336,2.374 -1.291,0 -2.337,-1.063 -2.337,-2.374 0,-1.311 1.046,-2.374 2.337,-2.374 1.29,0 2.336,1.063 2.336,2.374"
     fill="#cccccc"
     id="path75379" />
  <path
     d="m 650.222,362.729 c 0,1.311 -1.046,2.374 -2.336,2.374 -1.29,0 -2.336,-1.063 -2.336,-2.374 0,-1.311 1.046,-2.374 2.336,-2.374 1.29,0 2.336,1.063 2.336,2.374"
     fill="#cccccc"
     id="path75381" />
  <g
     id="g9300"
     style="fill:#999999;fill-opacity:1">
    <path
       d="m 175.98543,121.24078 h 230.19195 c 2.19476,0 3.96882,-1.77406 3.96882,-3.96882 0,-2.19476 -1.77406,-3.96883 -3.96882,-3.96883 H 175.98543 c -2.1908,0 -3.96883,1.77407 -3.96883,3.96883 0,2.19476 1.77803,3.96882 3.96883,3.96882 z"
       id="path8077"
       style="stroke:none;stroke-width:3.96899;stroke-dasharray:none;stroke-opacity:1;fill:#999999;fill-opacity:1" />
    <path
       d="m 406.17738,343.49508 h -7.93766 v -51.59475 -7.93765 -123.03363 h -39.68827 v 123.03363 7.93765 51.59475 h -3.96882 v -51.59475 -7.93765 -39.68827 h -39.68827 v 39.68827 7.93765 51.59475 h -3.96883 v -51.59475 -7.93765 -83.34536 h -39.68826 v 83.34536 7.93765 51.59475 h -3.96883 v -51.59475 -7.93765 -59.5324 h -39.68827 v 59.5324 7.93765 51.59475 h -3.96882 v -51.59475 -7.93765 -19.84414 h -39.68827 v 19.84414 7.93765 51.59475 h -7.93765 c -2.1908,0 -3.96883,1.77406 -3.96883,3.96883 0,2.19476 1.77803,3.96882 3.96883,3.96882 h 7.93765 39.68827 3.96882 39.68827 3.96883 39.68826 3.96883 39.68827 3.96882 39.68827 7.93766 c 2.19476,0 3.96882,-1.77406 3.96882,-3.96882 0,-2.19477 -1.77406,-3.96883 -3.96882,-3.96883 z M 191.86073,272.0562 h 23.81296 v 11.90648 h -23.81296 z m 0,71.43888 v -51.59475 h 23.81296 v 51.59475 z m 43.6571,-111.12715 h 23.81296 v 51.59475 h -23.81296 z m 0,111.12715 v -51.59475 h 23.81296 v 51.59475 z m 43.65709,-134.94011 h 23.81296 v 75.40771 h -23.81296 z m 0,134.94011 v -51.59475 h 23.81296 v 51.59475 z m 43.65709,-91.28302 h 23.81296 v 31.75062 h -23.81296 z m 0,91.28302 v -51.59475 h 23.81296 v 51.59475 z m 43.6571,-174.62838 h 23.81296 v 115.09598 h -23.81296 z m 0,174.62838 v -51.59475 h 23.81296 v 51.59475 z"
       id="path8079"
       style="stroke:none;stroke-width:3.969;stroke-dasharray:none;stroke-opacity:1;fill:#999999;fill-opacity:1" />
    <path
       d="m 203.76721,164.89788 h 31.75062 c 2.19079,0 3.96882,-1.77407 3.96882,-3.96883 0,-2.19476 -1.77803,-3.96883 -3.96882,-3.96883 h -31.75062 c -2.19079,0 -3.96882,1.77407 -3.96882,3.96883 0,2.19476 1.77803,3.96883 3.96882,3.96883 z"
       id="path8081"
       style="stroke:none;stroke-width:3.96899;stroke-dasharray:none;stroke-opacity:1;fill:#999999;fill-opacity:1" />
    <path
       d="m 181.10521,158.11118 c -0.71439,0.71439 -1.15096,1.74232 -1.15096,2.81787 0,1.07158 0.43657,2.06379 1.15096,2.81787 0.75408,0.71439 1.78598,1.15096 2.81787,1.15096 1.0319,0 2.06379,-0.43657 2.81787,-1.15096 0.71439,-0.75408 1.15096,-1.78597 1.15096,-2.81787 0,-1.07555 -0.43657,-2.06776 -1.15096,-2.81787 -1.50816,-1.46846 -4.16727,-1.46846 -5.63574,0 z"
       id="path8083"
       style="stroke:none;stroke-width:3.96899;stroke-dasharray:none;stroke-opacity:1;fill:#999999;fill-opacity:1" />
    <path
       d="m 199.79839,141.08492 c 0,-2.19476 -1.77804,-3.96883 -3.96883,-3.96883 h -11.90648 c -2.19079,0 -3.96883,1.77407 -3.96883,3.96883 0,2.19476 1.77804,3.96882 3.96883,3.96882 h 11.90648 c 2.19079,0 3.96883,-1.77406 3.96883,-3.96882 z"
       id="path8085"
       style="stroke:none;stroke-width:3.96899;stroke-dasharray:none;stroke-opacity:1;fill:#999999;fill-opacity:1" />
    <path
       d="m 235.51783,137.11609 h -7.93766 c -2.19079,0 -3.96882,1.77407 -3.96882,3.96883 0,2.19476 1.77803,3.96882 3.96882,3.96882 h 7.93766 c 2.19079,0 3.96882,-1.77406 3.96882,-3.96882 0,-2.19476 -1.77803,-3.96883 -3.96882,-3.96883 z"
       id="path8087"
       style="stroke:none;stroke-width:3.96899;stroke-dasharray:none;stroke-opacity:1;fill:#999999;fill-opacity:1" />
    <path
       d="m 214.52273,143.90278 c 0.71439,-0.75407 1.15096,-1.78597 1.15096,-2.81786 0,-1.0319 -0.43657,-2.06776 -1.15096,-2.81787 -1.50815,-1.46847 -4.12758,-1.46847 -5.63573,0 -0.71439,0.75011 -1.15096,1.78597 -1.15096,2.81787 0,1.03189 0.43657,2.06379 1.15096,2.81786 0.75408,0.71439 1.78597,1.15096 2.81787,1.15096 1.03189,0 2.06379,-0.43657 2.81786,-1.15096 z"
       id="path8089"
       style="stroke:none;stroke-width:3.96899;stroke-dasharray:none;stroke-opacity:1;fill:#999999;fill-opacity:1" />
  </g>
  <path
     style="fill:none;stroke:#000000;stroke-width:6.5;stroke-linecap:round;stroke-linejoin:miter;stroke-dasharray:none;stroke-opacity:1"
     d="M 512.09117,327.06258 470.34839,213.21291"
     id="path1681"
     sodipodi:nodetypes="cc" />
</svg>
